# xmcd
#
# Track frame offsets:
#	150
#	9428
#	19490
#	31098
#	43442
#	53696
#	67555
#	84302
#	96499
#	105301
#	119846
#	131287
#	136951
#	142875
#	148358
#	156649
#	167130
#	177656
#	195351
#	204612
#	215226
#	223056
#	235330
#	246579
#	257415
#	268133
#
# Disc length: 3708 seconds
#
# Revision: 2
# Processed by: cddbd v1.5.2PL0 Copyright (c) Steve Scherf et al.
# Submitted via: audiograbber 1.83.01
#
DISCID=900e7a1a
DTITLE=циаммгс йаьакгс - та вояеутийа CD2
DYEAR=2016
DGENRE=гпеияытийа
TTITLE0=л' ежаце г лийяг
TTITLE1=емас жикос пимеи
TTITLE2=ти акко хекеис ма соу пы
TTITLE3=аимте ыпа ыпа
TTITLE4=ема пимы йаи лехы
TTITLE5=секида цуяифы - леяа йаи мувта памы сто тиломи
TTITLE6=леса стис алаятиес лоу - ха тилыягсы тгм йаядиа
TTITLE7=евы амацйг ма ликгсы
TTITLE8=тгс ацапгс та йкеидиа
TTITLE9=лоусйеьа покка ламтгкиа
TTITLE10=то алаятыко то паяекхом соу
TTITLE11=тгм алаятиа соу
TTITLE12=елеис ои дуо лафи ха фоуле
TTITLE13=с' т' ояйифолаи
TTITLE14=ломо о хеос
TTITLE15=жуце ма гсгвасы
TTITLE16=паяе т' алани
TTITLE17=ма 'ва петяимг йаядиа - сгладайи лекамо
TTITLE18=аисхглатиес
TTITLE19=о пеяибокаягс
TTITLE20=бягйа том лпека лоу
TTITLE21=дем амоицоуле дуо поятес
TTITLE22=евоуле дем евоуле
TTITLE23=жыманте ема циатяо
TTITLE24=та йоллатиа тгс йаядиас лоу
TTITLE25=пяицйгпесса лоу
EXTD=
EXTT0=
EXTT1=
EXTT2=
EXTT3=
EXTT4=
EXTT5=
EXTT6=
EXTT7=
EXTT8=
EXTT9=
EXTT10=
EXTT11=
EXTT12=
EXTT13=
EXTT14=
EXTT15=
EXTT16=
EXTT17=
EXTT18=
EXTT19=
EXTT20=
EXTT21=
EXTT22=
EXTT23=
EXTT24=
EXTT25=
PLAYORDER=
